<?xml version="1.0" encoding="UTF-8"?>
<svg id="Layer_1" xmlns="http://www.w3.org/2000/svg" version="1.1" viewBox="0 0 77 47">
  <!-- Generator: Adobe Illustrator 29.8.5, SVG Export Plug-In . SVG Version: 2.1.1 Build 2)  -->
  <defs>
    <style>
      .st0 {
        fill: #fbf06b;
      }

      .st1 {
        fill: #ed1c24;
        font-family: Verdana-Bold, Verdana;
        font-size: 38.78px;
        font-weight: 700;
      }
    </style>
  </defs>
  <polygon class="st0" points="38.5 1.2 40.66 3.67 43.29 1.72 44.87 4.59 47.86 3.26 48.79 6.4 52 5.75 52.22 9.02 55.5 9.06 55.01 12.3 58.2 13.05 57.03 16.12 59.99 17.53 58.19 20.27 60.77 22.29 58.42 24.58 60.51 27.11 57.72 28.84 59.22 31.75 56.13 32.85 56.96 36.01 53.71 36.42 53.84 39.69 50.57 39.38 50 42.61 46.88 41.61 45.62 44.63 42.79 42.98 40.91 45.67 38.5 43.45 36.09 45.67 34.21 42.98 31.38 44.63 30.12 41.61 27 42.61 26.43 39.38 23.16 39.69 23.29 36.42 20.04 36.01 20.87 32.85 17.78 31.75 19.28 28.84 16.49 27.11 18.58 24.58 16.23 22.29 18.81 20.27 17.01 17.53 19.97 16.12 18.8 13.05 21.99 12.3 21.5 9.06 24.78 9.02 25 5.75 28.21 6.4 29.14 3.26 32.13 4.59 33.71 1.72 36.34 3.67 38.5 1.2"/>
  <text class="st1" transform="translate(24.03 34.69)"><tspan x="0" y="0">A</tspan></text>
</svg>